<svg width="50" height="50" viewBox="0 0 50 50" fill="none" xmlns="http://www.w3.org/2000/svg">
<path fill-rule="evenodd" clip-rule="evenodd" d="M25 8.33335C15.7952 8.33335 8.33332 15.7953 8.33332 25C8.33332 34.2048 15.7952 41.6667 25 41.6667C34.2047 41.6667 41.6667 34.2048 41.6667 25C41.6667 15.7953 34.2047 8.33335 25 8.33335ZM4.16666 25C4.16666 13.4941 13.4941 4.16669 25 4.16669C36.5059 4.16669 45.8333 13.4941 45.8333 25C45.8333 36.506 36.5059 45.8334 25 45.8334C13.4941 45.8334 4.16666 36.506 4.16666 25ZM24.6425 14.0778C25.7931 14.0778 26.7259 15.0106 26.7259 16.1612V26.5095L34.0736 29.3026C35.1491 29.7115 35.6895 30.9148 35.2807 31.9903C34.8719 33.0658 33.6685 33.6062 32.593 33.1974L23.9023 29.8937C23.0937 29.5863 22.5592 28.8113 22.5592 27.9463V16.1612C22.5592 15.0106 23.492 14.0778 24.6425 14.0778Z" fill="white"/>
</svg>
