<svg width="50" height="50" viewBox="0 0 50 50" fill="none" xmlns="http://www.w3.org/2000/svg">
<path fill-rule="evenodd" clip-rule="evenodd" d="M25.5825 7.74122C25.2021 7.63042 24.7979 7.63042 24.4175 7.74122C24.308 7.77311 24.1156 7.8529 23.7062 8.16284C23.2757 8.4888 22.7486 8.9553 21.9273 9.68532L11.0114 19.3883C9.67319 20.5779 9.29381 20.9366 9.03008 21.3333C8.77637 21.7149 8.58736 22.1358 8.47067 22.579C8.34937 23.0397 8.33333 23.5615 8.33333 25.352V35.7708C8.33333 37.5854 8.335 38.819 8.41414 39.7719C8.49121 40.6999 8.63082 41.1737 8.80244 41.504C9.19775 42.265 9.81825 42.8856 10.5793 43.2809C10.9096 43.4525 11.3834 43.5921 12.3114 43.6692C13.2643 43.7483 14.4979 43.75 16.3125 43.75H16.6667V37.5C16.6667 32.8976 20.3976 29.1666 25 29.1666C29.6024 29.1666 33.3333 32.8976 33.3333 37.5V43.75H33.6875C35.5021 43.75 36.7357 43.7483 37.6886 43.6692C38.6166 43.5921 39.0903 43.4525 39.4207 43.2809C40.1817 42.8856 40.8022 42.265 41.1976 41.504C41.3692 41.1737 41.5088 40.6999 41.5858 39.772C41.665 38.819 41.6667 37.5854 41.6667 35.7708V25.352C41.6667 23.5615 41.6506 23.0397 41.5293 22.579C41.4126 22.1358 41.2236 21.7149 40.9699 21.3333C40.7062 20.9366 40.3268 20.5779 38.9886 19.3883L28.0727 9.68532C27.2514 8.9553 26.7243 8.4888 26.2938 8.16284C25.8844 7.8529 25.692 7.77311 25.5825 7.74122ZM23.2524 3.74075C24.3938 3.40836 25.6062 3.40836 26.7476 3.74075C27.5395 3.97138 28.1962 4.37697 28.8089 4.84089C29.386 5.27781 30.0358 5.85549 30.7842 6.52071L41.7567 16.2741C41.8158 16.3266 41.8741 16.3784 41.9317 16.4296C43.0185 17.3946 43.8396 18.1236 44.4398 19.0266C44.9472 19.7899 45.3253 20.6317 45.5586 21.518C45.8347 22.5666 45.8342 23.6646 45.8334 25.118C45.8334 25.195 45.8333 25.273 45.8333 25.352V35.8583C45.8334 37.5635 45.8334 38.9709 45.7382 40.1168C45.6394 41.3071 45.4272 42.4005 44.8951 43.4248C44.1045 44.9468 42.8635 46.1878 41.3415 46.9784C40.3172 47.5105 39.2238 47.7227 38.0335 47.8215C36.8876 47.9167 35.4802 47.9167 33.7749 47.9166H32.9271C32.911 47.9166 32.8946 47.9167 32.8781 47.9167C32.6257 47.9168 32.3244 47.9169 32.0591 47.8948C31.7514 47.8693 31.3109 47.8037 30.8511 47.5648C30.2804 47.2683 29.815 46.8029 29.5185 46.2322C29.2796 45.7724 29.214 45.3319 29.1885 45.0242C29.1664 44.7589 29.1666 44.4576 29.1666 44.2053L29.1667 37.5C29.1667 35.1988 27.3012 33.3333 25 33.3333C22.6988 33.3333 20.8333 35.1988 20.8333 37.5L20.8333 44.2052C20.8334 44.4576 20.8336 44.7589 20.8115 45.0242C20.786 45.3319 20.7204 45.7724 20.4815 46.2322C20.185 46.8029 19.7196 47.2683 19.1489 47.5648C18.6891 47.8037 18.2486 47.8693 17.9409 47.8948C17.6756 47.9169 17.3742 47.9168 17.1219 47.9167C17.1054 47.9167 17.089 47.9166 17.0729 47.9166H16.225C14.5198 47.9167 13.1124 47.9167 11.9665 47.8215C10.7762 47.7227 9.68278 47.5105 8.65854 46.9784C7.13652 46.1878 5.89551 44.9468 5.10488 43.4248C4.57283 42.4005 4.36062 41.3071 4.26177 40.1168C4.16661 38.971 4.16663 37.5636 4.16666 35.8583L4.16666 25.352C4.16666 25.273 4.16662 25.195 4.16658 25.118C4.16582 23.6645 4.16525 22.5666 4.44134 21.518C4.67473 20.6317 5.05275 19.7899 5.56017 19.0266C6.16043 18.1236 6.98145 17.3946 8.06825 16.4296C8.12584 16.3784 8.18416 16.3266 8.24324 16.2741L19.2158 6.52073C19.9641 5.8555 20.614 5.27781 21.1911 4.84089C21.8038 4.37697 22.4605 3.97138 23.2524 3.74075Z" fill="white"/>
</svg>
