<svg width="153" height="40" viewBox="0 0 153 40" fill="none" xmlns="http://www.w3.org/2000/svg">
<path d="M10.1605 39.5507C8.20442 39.5507 6.45567 39.1505 4.92366 38.3598C3.39159 37.5689 2.18722 36.4261 1.31041 34.9217C0.433486 33.4221 0 31.5946 0 29.4487V29.0841C0 27.1023 0.399821 25.3567 1.20438 23.8331C2.00893 22.314 3.1555 21.1232 4.64905 20.2599C6.13769 19.3968 7.91058 18.9677 9.96301 18.9677C11.3938 18.9677 12.7524 19.1557 14.0484 19.5415C15.3444 19.9223 16.5439 20.5733 17.6568 21.4943V26.0971H14.5076L13.8532 25.5407L13.5618 23.7559C13.2438 23.5389 12.9066 23.3507 12.55 23.1918C12.1983 23.0326 11.8227 22.9071 11.4227 22.8252C11.0228 22.7384 10.5941 22.695 10.1316 22.695C9.08608 22.695 8.17561 22.9458 7.39514 23.4472C6.61467 23.9438 6.00769 24.6671 5.57887 25.6123C5.14999 26.5622 4.93804 27.705 4.93804 29.0551V29.4487C4.93804 30.7121 5.1597 31.8164 5.60289 32.7759C6.04135 33.7307 6.66283 34.4781 7.4578 35.0132C8.25265 35.5485 9.17289 35.8185 10.2183 35.8185C10.7723 35.8185 11.336 35.7606 11.9093 35.6401C12.4827 35.5244 13.0415 35.3653 13.5763 35.1676L13.8752 33.399L14.5326 32.843H17.6809V37.4435C16.8667 38.0077 15.8213 38.4995 14.5494 38.9191C13.2775 39.3386 11.8178 39.5507 10.1605 39.5507Z" fill="white"/>
<path d="M19.9138 36.4697L20.1009 36.4422L26.2291 18.9819H31.5911L37.7289 36.4422L37.916 36.4697L38.4735 37.1157V39.5523H32.1859V37.0884L32.7397 36.4212L32.8341 36.4036L32.2126 34.1711H25.6076L25.015 36.4036L25.1044 36.4204L25.6583 37.088V39.5523H19.3564V37.1157L19.9138 36.4697ZM26.653 30.6944H31.1527L29.1486 24.4645L28.9221 23.746H28.8402L28.5994 24.5369L26.653 30.6944Z" fill="white"/>
<path d="M41.308 36.3924L42.1949 36.2061V22.3478L41.3077 22.1594L40.7566 21.4784V18.9677H50.1683C51.7967 18.9677 53.2082 19.2281 54.4029 19.7487C55.5977 20.2648 56.5179 21.0025 57.1683 21.9572C57.8188 22.912 58.1415 24.0452 58.1415 25.3567C58.1415 26.5622 57.8139 27.6808 57.1635 28.7176C56.6127 29.589 55.8916 30.3141 54.9975 30.8954L57.3341 36.6247L58.043 36.8034L58.5893 37.505V40.0001H53.2968L50.5867 32.1363H50.5778L47.1475 32.0929V36.2061L48.0297 36.3918L48.581 37.0719V39.5524H40.7566V37.0721L41.308 36.3924ZM47.1475 28.2933H50.2261C51.1848 28.2933 51.9218 28.0714 52.4422 27.623C52.9576 27.1745 53.2179 26.5284 53.2179 25.6797C53.2179 24.8022 52.9528 24.0982 52.4277 23.5677C51.8977 23.0373 51.1463 22.7722 50.1683 22.7722H47.1475V28.2933Z" fill="white"/>
<path d="M61.3783 36.3923L62.2652 36.2059V22.3477L61.378 22.1593L60.8269 21.4783V18.9819H62.2652H70.123C71.761 18.9819 73.1821 19.2712 74.3866 19.8451C75.591 20.4189 76.5208 21.2193 77.176 22.2417C77.8313 23.2639 78.154 24.45 78.154 25.805C78.154 27.1648 77.8313 28.351 77.176 29.3684C76.5208 30.3858 75.591 31.1767 74.3866 31.7409C73.1821 32.305 71.761 32.5894 70.123 32.5894H67.2178V36.2059L68.1 36.3917L68.6513 37.0718V39.5523H60.8269V37.072L61.3783 36.3923ZM67.2178 28.7897H70.123C71.1298 28.7897 71.8958 28.5102 72.4161 27.9604C72.9413 27.4107 73.2014 26.7019 73.2014 25.8339C73.2014 24.9419 72.9413 24.2042 72.4161 23.6303C71.8958 23.0565 71.1298 22.7721 70.123 22.7721H67.2178V28.7897Z" fill="white"/>
<path d="M88.9122 39.8513C87.491 39.8513 86.1853 39.5861 84.9954 39.0653C83.8055 38.5445 82.7745 37.8116 81.8976 36.8665C81.0208 35.9263 80.3463 34.822 79.8742 33.5538C79.3972 32.2906 79.1611 30.9115 79.1611 29.4215V29.0985C79.1611 27.618 79.3972 26.2486 79.8742 24.9853C80.3463 23.7268 81.0208 22.6225 81.8928 21.6823C82.76 20.742 83.791 20.0042 84.9762 19.4787C86.1614 18.9531 87.462 18.6879 88.8832 18.6879C90.2756 18.6879 91.5715 18.9531 92.7663 19.4787C93.9611 20.0042 95.0066 20.742 95.9076 21.6823C96.8037 22.6225 97.5021 23.7268 98.0031 24.9853C98.4994 26.2486 98.7499 27.618 98.7499 29.0985V29.4215C98.7499 30.9115 98.4994 32.2906 98.0031 33.5538C97.5021 34.822 96.8083 35.9263 95.9123 36.8665C95.0211 37.8116 93.9756 38.5445 92.7808 39.0653C91.586 39.5861 90.2948 39.8513 88.9122 39.8513ZM88.9014 35.9349C89.8717 35.9349 90.6977 35.6661 91.3882 35.119C92.0743 34.5768 92.5978 33.8176 92.9589 32.8415C93.3245 31.8654 93.505 30.7244 93.505 29.4133V29.0691C93.505 27.7913 93.32 26.6643 92.9544 25.6928C92.5889 24.7214 92.0608 23.9623 91.3747 23.42C90.6886 22.8777 89.8537 22.6043 88.8743 22.6043C87.8453 22.6043 87.0013 22.873 86.3424 23.4058C85.6879 23.9387 85.2005 24.6885 84.8799 25.6598C84.5641 26.6266 84.406 27.763 84.406 29.0691V29.4133C84.406 30.7242 84.5686 31.8654 84.889 32.8462C85.2094 33.8271 85.706 34.591 86.3694 35.1286C87.0329 35.6661 87.8769 35.9348 88.9014 35.9349Z" fill="white"/>
<path d="M99.8839 36.3924L100.771 36.2061V22.3478L99.8837 22.1594L99.3325 21.4784V18.9677H108.744C110.373 18.9677 111.784 19.2281 112.979 19.7487C114.174 20.2648 115.094 21.0025 115.744 21.9572C116.395 22.912 116.717 24.0452 116.717 25.3567C116.717 26.5622 116.39 27.6808 115.739 28.7175C115.182 29.5996 114.45 30.3316 113.541 30.9164L115.686 36.177L116.395 36.3557L116.942 37.0573V39.5524H111.649L109.093 32.1355L105.723 32.0929V36.2061L106.606 36.3918L107.157 37.0719V39.5524H99.3325V37.0721L99.8839 36.3924ZM105.723 28.2933H108.802C109.761 28.2933 110.498 28.0714 111.018 27.623C111.534 27.1745 111.794 26.5284 111.794 25.6797C111.794 24.8022 111.529 24.0982 111.004 23.5677C110.474 23.0373 109.722 22.7722 108.744 22.7722H105.723V28.2933Z" fill="white"/>
<path d="M124.053 36.3935L124.949 36.2061V22.8108H121.775L121.718 23.7693L121.122 24.3325H117.906V18.9677H129.902V22.8108V29.5084V36.2061L130.803 36.394L131.355 37.0731V39.5524H123.502V37.0728L124.053 36.3935Z" fill="white"/>
<path fill-rule="evenodd" clip-rule="evenodd" d="M152.112 24.0478L135.268 12.0239L118.424 0L101.58 12.0239L95.4116 16.4275H102.528L108.697 12.0239L118.424 5.08023L128.151 12.0239L137.803 18.9676H133.166C132.168 18.9676 131.321 19.622 131.019 20.6268L129.902 24.3323H137.803V24.3324H152.51L152.112 24.0478Z" fill="#FFCC00"/>
<path fill-rule="evenodd" clip-rule="evenodd" d="M86.2292 16.4275H93.3458L116.358 0H109.242L86.2292 16.4275Z" fill="#FFCC00"/>
<path fill-rule="evenodd" clip-rule="evenodd" d="M77.0469 16.4275H84.1635L107.176 0H100.06L77.0469 16.4275Z" fill="#FFCC00"/>
</svg>
