<svg width="174" height="229" viewBox="0 0 174 229" fill="none" xmlns="http://www.w3.org/2000/svg">
<path d="M158.151 60.246C158.151 60.246 132.896 80.7463 159.786 126.546C183.666 167.22 126.6 183.268 102.392 178.044C71.0326 171.276 54.1469 131.908 29.6304 143.681C5.11395 155.454 -17.0235 98.9783 18.7206 79.2273C63.1852 54.6578 35.636 39.1262 40.1492 20.4521C43.388 7.04962 84.092 -12.834 104.936 11.4267C122.476 31.8417 131.612 24.8999 140.001 22.4264C152.101 18.8588 177.614 39.4913 158.151 60.246Z" fill="#D6D6D6"/>
<path d="M132.605 30.1791L78.1122 21.5795C74.1155 20.9488 70.3446 23.5578 69.6897 27.4069L50.8412 138.183C50.1863 142.032 52.8954 145.663 56.8921 146.294L111.385 154.894C115.382 155.524 119.153 152.915 119.808 149.066L138.656 38.2905C139.311 34.4414 136.602 30.8098 132.605 30.1791Z" fill="#424242"/>
<path d="M130.813 33.3006L78.7753 25.0885C76.1108 24.668 73.5969 26.4073 73.1602 28.9734L54.6496 137.764C54.213 140.33 56.0191 142.751 58.6836 143.171L110.721 151.384C113.386 151.804 115.9 150.065 116.336 147.499L134.847 38.7082C135.283 36.1421 133.477 33.7211 130.813 33.3006Z" fill="#8C8C8C"/>
<path d="M167.057 21.8588C161.197 19.5008 157.055 21.7628 156.075 24.0204C155.368 25.651 156.474 26.9798 157.646 27.4515C159.99 28.3946 160.431 24.7911 164.859 26.5726C167.03 27.4458 168.367 29.0644 167.532 30.9876C166.553 33.2454 163.56 33.5634 161.619 34.1576C159.907 34.6964 157.514 35.7469 155.954 39.3424C155.011 41.5164 155.346 42.388 157.126 43.1042C159.253 43.9599 160.086 43.2148 160.431 42.4204C161.374 40.2463 161.962 39.0094 165.129 38.1723C166.682 37.766 171.605 36.4074 173.31 32.4775C175.015 28.5476 172.613 24.0944 167.057 21.8588Z" fill="#424242"/>
<path d="M155.918 46.0065C155.034 45.6621 154.044 45.6673 153.164 46.0211C152.284 46.3748 151.584 47.0485 151.216 47.896C150.849 48.7435 150.843 49.6965 151.2 50.5481C151.557 51.3998 152.249 52.0814 153.124 52.4451C154.01 52.7959 155.004 52.795 155.888 52.4424C156.773 52.0898 157.477 51.4143 157.846 50.5636C158.215 49.7128 158.219 48.7559 157.858 47.902C157.497 47.0481 156.799 46.3666 155.918 46.0065V46.0065Z" fill="#424242"/>
<path d="M15.1885 90.3271C9.66209 93.3405 8.97869 97.8789 10.2305 100.008C11.1346 101.546 12.9025 101.519 14.0082 100.916C16.2186 99.7108 13.5329 97.1659 17.7084 94.889C19.7557 93.7721 21.9028 93.7474 22.9692 95.5611C24.2211 97.6904 22.6473 100.163 21.9454 102.003C21.3379 103.637 20.7329 106.101 22.7266 109.492C23.9319 111.543 24.8526 111.822 26.5312 110.906C28.5369 109.813 28.4362 108.722 27.9958 107.973C26.7902 105.922 26.1358 104.717 27.3904 101.794C28.009 100.363 29.9119 95.7845 27.7329 92.0782C25.5539 88.372 20.4283 87.4698 15.1885 90.3271Z" fill="#424242"/>
<path d="M28.1712 113.605C27.3466 114.067 26.7444 114.823 26.495 115.709C26.2457 116.596 26.3694 117.541 26.8394 118.341C27.3093 119.14 28.0875 119.729 29.0052 119.979C29.9229 120.229 30.906 120.121 31.7412 119.677C32.5718 119.218 33.18 118.462 33.433 117.573C33.6861 116.683 33.5633 115.734 33.0916 114.931C32.6198 114.129 31.8375 113.539 30.9155 113.291C29.9935 113.042 29.0069 113.155 28.1712 113.605V113.605Z" fill="#424242"/>
<path d="M87.3723 72.1666C87.7295 70.0489 87.0947 68.1875 85.9545 68.0091C84.8142 67.8307 83.6002 69.4029 83.243 71.5206C82.8858 73.6384 83.5206 75.4998 84.6608 75.6782C85.8011 75.8566 87.015 74.2844 87.3723 72.1666Z" fill="white"/>
<path d="M111.149 75.9254C111.51 73.7866 110.878 71.9081 109.738 71.7297C108.598 71.5513 107.381 73.1405 107.02 75.2794C106.659 77.4182 107.291 79.2967 108.431 79.4751C109.572 79.6535 110.788 78.0642 111.149 75.9254Z" fill="white"/>
<path d="M101.443 94.3628C101.361 94.3629 101.278 94.3468 101.202 94.3153C101.126 94.2838 101.057 94.2376 101 94.1797L100.14 93.3077C98.7608 91.9128 96.9435 90.9931 94.9682 90.69C92.9928 90.3869 90.9688 90.7172 89.2074 91.63L88.1086 92.2014C88.038 92.2381 87.9605 92.2611 87.8807 92.269C87.8008 92.2769 87.7202 92.2696 87.6433 92.2474C87.5664 92.2253 87.4947 92.1888 87.4325 92.14C87.3702 92.0913 87.3186 92.0311 87.2804 91.9631C87.2423 91.8951 87.2184 91.8205 87.2102 91.7437C87.202 91.6668 87.2096 91.5891 87.2326 91.515C87.2556 91.4409 87.2935 91.372 87.3441 91.312C87.3948 91.252 87.4572 91.2023 87.5278 91.1656L88.6266 90.5942C90.6243 89.5588 92.9199 89.1842 95.1603 89.528C97.4007 89.8718 99.4618 90.9149 101.026 92.4969L101.886 93.3689C101.969 93.4523 102.024 93.5572 102.045 93.6705C102.066 93.7838 102.052 93.9005 102.005 94.0063C101.958 94.112 101.879 94.2022 101.78 94.2655C101.68 94.3289 101.563 94.3626 101.443 94.3627V94.3628Z" fill="white"/>
<path d="M23.936 206V194.364H28.527C29.4057 194.364 30.1557 194.521 30.777 194.835C31.402 195.146 31.8773 195.587 32.2031 196.159C32.5326 196.727 32.6974 197.396 32.6974 198.165C32.6974 198.937 32.5307 199.602 32.1974 200.159C31.8641 200.712 31.3811 201.136 30.7485 201.432C30.1198 201.727 29.3584 201.875 28.4645 201.875H25.3906V199.898H28.0667C28.5364 199.898 28.9266 199.833 29.2372 199.705C29.5478 199.576 29.7788 199.383 29.9304 199.125C30.0857 198.867 30.1633 198.547 30.1633 198.165C30.1633 197.778 30.0857 197.453 29.9304 197.188C29.7788 196.922 29.5459 196.722 29.2315 196.585C28.9209 196.445 28.5288 196.375 28.0554 196.375H26.3963V206H23.936ZM30.2201 200.705L33.1122 206H30.3963L27.5667 200.705H30.2201ZM38.2272 206.17C37.3295 206.17 36.5568 205.989 35.9091 205.625C35.2651 205.258 34.7689 204.739 34.4204 204.068C34.0719 203.394 33.8977 202.597 33.8977 201.676C33.8977 200.778 34.0719 199.991 34.4204 199.312C34.7689 198.634 35.2594 198.106 35.892 197.727C36.5284 197.348 37.2746 197.159 38.1306 197.159C38.7064 197.159 39.2424 197.252 39.7386 197.438C40.2386 197.619 40.6742 197.894 41.0454 198.261C41.4204 198.629 41.7121 199.091 41.9204 199.648C42.1288 200.201 42.2329 200.848 42.2329 201.591V202.256H34.8636V200.756H39.9545C39.9545 200.407 39.8788 200.098 39.7272 199.83C39.5757 199.561 39.3655 199.35 39.0966 199.199C38.8314 199.044 38.5227 198.966 38.1704 198.966C37.803 198.966 37.4772 199.051 37.1931 199.222C36.9128 199.388 36.6931 199.614 36.5341 199.898C36.375 200.178 36.2935 200.491 36.2897 200.835V202.261C36.2897 202.693 36.3693 203.066 36.5284 203.381C36.6913 203.695 36.9204 203.938 37.2159 204.108C37.5113 204.278 37.8617 204.364 38.267 204.364C38.536 204.364 38.7822 204.326 39.0056 204.25C39.2291 204.174 39.4204 204.061 39.5795 203.909C39.7386 203.758 39.8598 203.572 39.9431 203.352L42.1818 203.5C42.0681 204.038 41.8352 204.508 41.4829 204.909C41.1344 205.307 40.6837 205.617 40.1306 205.841C39.5814 206.061 38.9469 206.17 38.2272 206.17ZM47.7443 209.455C46.9602 209.455 46.2878 209.347 45.7272 209.131C45.1704 208.919 44.7272 208.629 44.3977 208.261C44.0681 207.894 43.8541 207.481 43.7556 207.023L45.9943 206.722C46.0625 206.896 46.1704 207.059 46.3181 207.21C46.4659 207.362 46.661 207.483 46.9034 207.574C47.1496 207.669 47.4488 207.716 47.8011 207.716C48.3276 207.716 48.7613 207.587 49.1022 207.33C49.4469 207.076 49.6193 206.65 49.6193 206.051V204.455H49.517C49.411 204.697 49.2519 204.926 49.0397 205.142C48.8276 205.358 48.5549 205.534 48.2216 205.67C47.8882 205.807 47.4905 205.875 47.0284 205.875C46.3731 205.875 45.7765 205.723 45.2386 205.42C44.7045 205.114 44.2784 204.646 43.9602 204.017C43.6458 203.384 43.4886 202.585 43.4886 201.619C43.4886 200.631 43.6496 199.805 43.9716 199.142C44.2935 198.479 44.7216 197.983 45.2556 197.653C45.7935 197.324 46.3825 197.159 47.0227 197.159C47.5113 197.159 47.9204 197.242 48.25 197.409C48.5795 197.572 48.8447 197.777 49.0454 198.023C49.25 198.265 49.4072 198.504 49.517 198.739H49.6079V197.273H52.0113V206.085C52.0113 206.828 51.8295 207.449 51.4659 207.949C51.1022 208.449 50.5985 208.824 49.9545 209.074C49.3144 209.328 48.5776 209.455 47.7443 209.455ZM47.7954 204.057C48.1856 204.057 48.5151 203.96 48.7841 203.767C49.0568 203.57 49.2651 203.29 49.4091 202.926C49.5568 202.559 49.6306 202.119 49.6306 201.608C49.6306 201.097 49.5587 200.653 49.4147 200.278C49.2708 199.9 49.0625 199.606 48.7897 199.398C48.517 199.189 48.1856 199.085 47.7954 199.085C47.3977 199.085 47.0625 199.193 46.7897 199.409C46.517 199.621 46.3106 199.917 46.1704 200.295C46.0303 200.674 45.9602 201.112 45.9602 201.608C45.9602 202.112 46.0303 202.547 46.1704 202.915C46.3144 203.278 46.5208 203.561 46.7897 203.761C47.0625 203.958 47.3977 204.057 47.7954 204.057ZM53.9375 206V197.273H56.3579V206H53.9375ZM55.1534 196.148C54.7935 196.148 54.4848 196.028 54.2272 195.79C53.9735 195.547 53.8466 195.258 53.8466 194.92C53.8466 194.587 53.9735 194.301 54.2272 194.062C54.4848 193.82 54.7935 193.699 55.1534 193.699C55.5132 193.699 55.82 193.82 56.0738 194.062C56.3314 194.301 56.4602 194.587 56.4602 194.92C56.4602 195.258 56.3314 195.547 56.0738 195.79C55.82 196.028 55.5132 196.148 55.1534 196.148ZM65.5582 199.761L63.3423 199.898C63.3044 199.708 63.223 199.538 63.098 199.386C62.973 199.231 62.8082 199.108 62.6037 199.017C62.4029 198.922 62.1624 198.875 61.8821 198.875C61.5071 198.875 61.1908 198.955 60.9332 199.114C60.6756 199.269 60.5468 199.477 60.5468 199.739C60.5468 199.947 60.6302 200.123 60.7968 200.267C60.9635 200.411 61.2495 200.527 61.6548 200.614L63.2343 200.932C64.0828 201.106 64.7154 201.386 65.1321 201.773C65.5487 202.159 65.7571 202.667 65.7571 203.295C65.7571 203.867 65.5885 204.369 65.2514 204.801C64.9181 205.233 64.4597 205.57 63.8764 205.812C63.2968 206.051 62.6283 206.17 61.8707 206.17C60.7154 206.17 59.7949 205.93 59.1093 205.449C58.4275 204.964 58.0279 204.305 57.9105 203.472L60.2912 203.347C60.3631 203.699 60.5374 203.968 60.8139 204.153C61.0904 204.335 61.4446 204.426 61.8764 204.426C62.3006 204.426 62.6415 204.345 62.8991 204.182C63.1605 204.015 63.2931 203.801 63.2968 203.54C63.2931 203.32 63.2003 203.14 63.0184 203C62.8366 202.856 62.5563 202.746 62.1775 202.67L60.6662 202.369C59.8139 202.199 59.1794 201.903 58.7628 201.483C58.3499 201.062 58.1434 200.527 58.1434 199.875C58.1434 199.314 58.2949 198.831 58.598 198.426C58.9048 198.021 59.3347 197.708 59.8878 197.489C60.4446 197.269 61.0961 197.159 61.8423 197.159C62.9446 197.159 63.812 197.392 64.4446 197.858C65.0809 198.324 65.4521 198.958 65.5582 199.761ZM71.9233 197.273V199.091H66.6676V197.273H71.9233ZM67.8608 195.182H70.2812V203.318C70.2812 203.542 70.3153 203.716 70.3835 203.841C70.4517 203.962 70.5464 204.047 70.6676 204.097C70.7926 204.146 70.9365 204.17 71.0994 204.17C71.213 204.17 71.3267 204.161 71.4403 204.142C71.5539 204.119 71.6411 204.102 71.7017 204.091L72.0824 205.892C71.9611 205.93 71.7907 205.973 71.571 206.023C71.3513 206.076 71.0842 206.108 70.7699 206.119C70.1865 206.142 69.6752 206.064 69.2358 205.886C68.8002 205.708 68.4611 205.432 68.2187 205.057C67.9763 204.682 67.857 204.208 67.8608 203.636V195.182ZM77.3835 206.17C76.4858 206.17 75.713 205.989 75.0653 205.625C74.4214 205.258 73.9252 204.739 73.5767 204.068C73.2282 203.394 73.0539 202.597 73.0539 201.676C73.0539 200.778 73.2282 199.991 73.5767 199.312C73.9252 198.634 74.4157 198.106 75.0483 197.727C75.6846 197.348 76.4308 197.159 77.2869 197.159C77.8627 197.159 78.3986 197.252 78.8949 197.438C79.3949 197.619 79.8305 197.894 80.2017 198.261C80.5767 198.629 80.8683 199.091 81.0767 199.648C81.285 200.201 81.3892 200.848 81.3892 201.591V202.256H74.0199V200.756H79.1108C79.1108 200.407 79.035 200.098 78.8835 199.83C78.732 199.561 78.5217 199.35 78.2528 199.199C77.9877 199.044 77.6789 198.966 77.3267 198.966C76.9592 198.966 76.6335 199.051 76.3494 199.222C76.0691 199.388 75.8494 199.614 75.6903 199.898C75.5312 200.178 75.4498 200.491 75.446 200.835V202.261C75.446 202.693 75.5255 203.066 75.6846 203.381C75.8475 203.695 76.0767 203.938 76.3721 204.108C76.6676 204.278 77.018 204.364 77.4233 204.364C77.6922 204.364 77.9384 204.326 78.1619 204.25C78.3854 204.174 78.5767 204.061 78.7358 203.909C78.8949 203.758 79.0161 203.572 79.0994 203.352L81.338 203.5C81.2244 204.038 80.9914 204.508 80.6392 204.909C80.2907 205.307 79.8399 205.617 79.2869 205.841C78.7377 206.061 78.1032 206.17 77.3835 206.17ZM82.9687 206V197.273H85.3153V198.795H85.4062C85.5653 198.254 85.8324 197.845 86.2074 197.568C86.5824 197.288 87.0142 197.148 87.5028 197.148C87.624 197.148 87.7547 197.155 87.8949 197.17C88.035 197.186 88.1581 197.206 88.2642 197.233V199.381C88.1505 199.347 87.9933 199.316 87.7926 199.29C87.5918 199.263 87.4081 199.25 87.2414 199.25C86.8854 199.25 86.5672 199.328 86.2869 199.483C86.0104 199.634 85.7907 199.847 85.6278 200.119C85.4687 200.392 85.3892 200.706 85.3892 201.062V206H82.9687ZM97.1619 206.17C96.2793 206.17 95.5161 205.983 94.8721 205.608C94.232 205.229 93.7377 204.703 93.3892 204.028C93.0407 203.35 92.8664 202.564 92.8664 201.67C92.8664 200.769 93.0407 199.981 93.3892 199.307C93.7377 198.629 94.232 198.102 94.8721 197.727C95.5161 197.348 96.2793 197.159 97.1619 197.159C98.0445 197.159 98.8058 197.348 99.446 197.727C100.09 198.102 100.586 198.629 100.935 199.307C101.283 199.981 101.457 200.769 101.457 201.67C101.457 202.564 101.283 203.35 100.935 204.028C100.586 204.703 100.09 205.229 99.446 205.608C98.8058 205.983 98.0445 206.17 97.1619 206.17ZM97.1733 204.295C97.5748 204.295 97.91 204.182 98.1789 203.955C98.4479 203.723 98.6505 203.409 98.7869 203.011C98.9271 202.614 98.9971 202.161 98.9971 201.653C98.9971 201.146 98.9271 200.693 98.7869 200.295C98.6505 199.898 98.4479 199.583 98.1789 199.352C97.91 199.121 97.5748 199.006 97.1733 199.006C96.768 199.006 96.4271 199.121 96.1505 199.352C95.8778 199.583 95.6714 199.898 95.5312 200.295C95.3949 200.693 95.3267 201.146 95.3267 201.653C95.3267 202.161 95.3949 202.614 95.5312 203.011C95.6714 203.409 95.8778 203.723 96.1505 203.955C96.4271 204.182 96.768 204.295 97.1733 204.295ZM103.031 206V197.273H105.378V198.795H105.469C105.628 198.254 105.895 197.845 106.27 197.568C106.645 197.288 107.077 197.148 107.565 197.148C107.687 197.148 107.817 197.155 107.957 197.17C108.098 197.186 108.221 197.206 108.327 197.233V199.381C108.213 199.347 108.056 199.316 107.855 199.29C107.654 199.263 107.471 199.25 107.304 199.25C106.948 199.25 106.63 199.328 106.349 199.483C106.073 199.634 105.853 199.847 105.69 200.119C105.531 200.392 105.452 200.706 105.452 201.062V206H103.031ZM115.702 194.364V206H113.281V194.364H115.702ZM121.584 206.17C120.701 206.17 119.938 205.983 119.294 205.608C118.654 205.229 118.16 204.703 117.811 204.028C117.463 203.35 117.288 202.564 117.288 201.67C117.288 200.769 117.463 199.981 117.811 199.307C118.16 198.629 118.654 198.102 119.294 197.727C119.938 197.348 120.701 197.159 121.584 197.159C122.466 197.159 123.228 197.348 123.868 197.727C124.512 198.102 125.008 198.629 125.357 199.307C125.705 199.981 125.879 200.769 125.879 201.67C125.879 202.564 125.705 203.35 125.357 204.028C125.008 204.703 124.512 205.229 123.868 205.608C123.228 205.983 122.466 206.17 121.584 206.17ZM121.595 204.295C121.997 204.295 122.332 204.182 122.601 203.955C122.87 203.723 123.072 203.409 123.209 203.011C123.349 202.614 123.419 202.161 123.419 201.653C123.419 201.146 123.349 200.693 123.209 200.295C123.072 199.898 122.87 199.583 122.601 199.352C122.332 199.121 121.997 199.006 121.595 199.006C121.19 199.006 120.849 199.121 120.572 199.352C120.3 199.583 120.093 199.898 119.953 200.295C119.817 200.693 119.749 201.146 119.749 201.653C119.749 202.161 119.817 202.614 119.953 203.011C120.093 203.409 120.3 203.723 120.572 203.955C120.849 204.182 121.19 204.295 121.595 204.295ZM131.385 209.455C130.601 209.455 129.928 209.347 129.368 209.131C128.811 208.919 128.368 208.629 128.038 208.261C127.709 207.894 127.495 207.481 127.396 207.023L129.635 206.722C129.703 206.896 129.811 207.059 129.959 207.21C130.107 207.362 130.302 207.483 130.544 207.574C130.79 207.669 131.089 207.716 131.442 207.716C131.968 207.716 132.402 207.587 132.743 207.33C133.088 207.076 133.26 206.65 133.26 206.051V204.455H133.158C133.052 204.697 132.892 204.926 132.68 205.142C132.468 205.358 132.196 205.534 131.862 205.67C131.529 205.807 131.131 205.875 130.669 205.875C130.014 205.875 129.417 205.723 128.879 205.42C128.345 205.114 127.919 204.646 127.601 204.017C127.286 203.384 127.129 202.585 127.129 201.619C127.129 200.631 127.29 199.805 127.612 199.142C127.934 198.479 128.362 197.983 128.896 197.653C129.434 197.324 130.023 197.159 130.663 197.159C131.152 197.159 131.561 197.242 131.891 197.409C132.22 197.572 132.485 197.777 132.686 198.023C132.891 198.265 133.048 198.504 133.158 198.739H133.249V197.273H135.652V206.085C135.652 206.828 135.47 207.449 135.107 207.949C134.743 208.449 134.239 208.824 133.595 209.074C132.955 209.328 132.218 209.455 131.385 209.455ZM131.436 204.057C131.826 204.057 132.156 203.96 132.425 203.767C132.697 203.57 132.906 203.29 133.05 202.926C133.197 202.559 133.271 202.119 133.271 201.608C133.271 201.097 133.199 200.653 133.055 200.278C132.911 199.9 132.703 199.606 132.43 199.398C132.158 199.189 131.826 199.085 131.436 199.085C131.038 199.085 130.703 199.193 130.43 199.409C130.158 199.621 129.951 199.917 129.811 200.295C129.671 200.674 129.601 201.112 129.601 201.608C129.601 202.112 129.671 202.547 129.811 202.915C129.955 203.278 130.161 203.561 130.43 203.761C130.703 203.958 131.038 204.057 131.436 204.057ZM137.578 206V197.273H139.999V206H137.578ZM138.794 196.148C138.434 196.148 138.125 196.028 137.868 195.79C137.614 195.547 137.487 195.258 137.487 194.92C137.487 194.587 137.614 194.301 137.868 194.062C138.125 193.82 138.434 193.699 138.794 193.699C139.154 193.699 139.461 193.82 139.714 194.062C139.972 194.301 140.101 194.587 140.101 194.92C140.101 195.258 139.972 195.547 139.714 195.79C139.461 196.028 139.154 196.148 138.794 196.148ZM144.358 200.955V206H141.937V197.273H144.244V198.812H144.347C144.54 198.305 144.864 197.903 145.318 197.608C145.773 197.309 146.324 197.159 146.972 197.159C147.578 197.159 148.106 197.292 148.557 197.557C149.008 197.822 149.358 198.201 149.608 198.693C149.858 199.182 149.983 199.765 149.983 200.443V206H147.562V200.875C147.566 200.341 147.43 199.924 147.153 199.625C146.877 199.322 146.496 199.17 146.011 199.17C145.686 199.17 145.398 199.241 145.148 199.381C144.901 199.521 144.708 199.725 144.568 199.994C144.432 200.259 144.362 200.58 144.358 200.955ZM18.0873 216.273V218.091H12.8316V216.273H18.0873ZM14.0248 214.182H16.4453V222.318C16.4453 222.542 16.4794 222.716 16.5476 222.841C16.6157 222.962 16.7104 223.047 16.8316 223.097C16.9566 223.146 17.1006 223.17 17.2635 223.17C17.3771 223.17 17.4907 223.161 17.6044 223.142C17.718 223.119 17.8051 223.102 17.8657 223.091L18.2464 224.892C18.1252 224.93 17.9547 224.973 17.7351 225.023C17.5154 225.076 17.2483 225.108 16.9339 225.119C16.3506 225.142 15.8392 225.064 15.3998 224.886C14.9642 224.708 14.6252 224.432 14.3828 224.057C14.1404 223.682 14.021 223.208 14.0248 222.636V214.182ZM23.5135 225.17C22.6309 225.17 21.8676 224.983 21.2237 224.608C20.5835 224.229 20.0892 223.703 19.7407 223.028C19.3922 222.35 19.218 221.564 19.218 220.67C19.218 219.769 19.3922 218.981 19.7407 218.307C20.0892 217.629 20.5835 217.102 21.2237 216.727C21.8676 216.348 22.6309 216.159 23.5135 216.159C24.396 216.159 25.1574 216.348 25.7976 216.727C26.4415 217.102 26.9377 217.629 27.2862 218.307C27.6347 218.981 27.8089 219.769 27.8089 220.67C27.8089 221.564 27.6347 222.35 27.2862 223.028C26.9377 223.703 26.4415 224.229 25.7976 224.608C25.1574 224.983 24.396 225.17 23.5135 225.17ZM23.5248 223.295C23.9263 223.295 24.2616 223.182 24.5305 222.955C24.7994 222.723 25.0021 222.409 25.1385 222.011C25.2786 221.614 25.3487 221.161 25.3487 220.653C25.3487 220.146 25.2786 219.693 25.1385 219.295C25.0021 218.898 24.7994 218.583 24.5305 218.352C24.2616 218.121 23.9263 218.006 23.5248 218.006C23.1195 218.006 22.7786 218.121 22.5021 218.352C22.2294 218.583 22.0229 218.898 21.8828 219.295C21.7464 219.693 21.6782 220.146 21.6782 220.653C21.6782 221.161 21.7464 221.614 21.8828 222.011C22.0229 222.409 22.2294 222.723 22.5021 222.955C22.7786 223.182 23.1195 223.295 23.5248 223.295ZM38.6825 221.284V216.273H41.103V225H38.7791V223.415H38.6882C38.4912 223.926 38.1636 224.337 37.7052 224.648C37.2507 224.958 36.6958 225.114 36.0404 225.114C35.4571 225.114 34.9439 224.981 34.5007 224.716C34.0575 224.451 33.7109 224.074 33.4609 223.585C33.2147 223.097 33.0897 222.511 33.0859 221.83V216.273H35.5064V221.398C35.5101 221.913 35.6484 222.32 35.9211 222.619C36.1939 222.919 36.5594 223.068 37.0177 223.068C37.3094 223.068 37.5821 223.002 37.8359 222.869C38.0897 222.733 38.2942 222.532 38.4495 222.267C38.6086 222.002 38.6863 221.674 38.6825 221.284ZM50.3004 218.761L48.0845 218.898C48.0466 218.708 47.9652 218.538 47.8402 218.386C47.7152 218.231 47.5504 218.108 47.3458 218.017C47.1451 217.922 46.9046 217.875 46.6243 217.875C46.2493 217.875 45.933 217.955 45.6754 218.114C45.4178 218.269 45.289 218.477 45.289 218.739C45.289 218.947 45.3724 219.123 45.539 219.267C45.7057 219.411 45.9917 219.527 46.397 219.614L47.9765 219.932C48.825 220.106 49.4576 220.386 49.8743 220.773C50.2909 221.159 50.4993 221.667 50.4993 222.295C50.4993 222.867 50.3307 223.369 49.9936 223.801C49.6602 224.233 49.2019 224.57 48.6186 224.812C48.039 225.051 47.3705 225.17 46.6129 225.17C45.4576 225.17 44.5371 224.93 43.8515 224.449C43.1697 223.964 42.7701 223.305 42.6527 222.472L45.0333 222.347C45.1053 222.699 45.2796 222.968 45.5561 223.153C45.8326 223.335 46.1868 223.426 46.6186 223.426C47.0428 223.426 47.3837 223.345 47.6413 223.182C47.9027 223.015 48.0352 222.801 48.039 222.54C48.0352 222.32 47.9424 222.14 47.7606 222C47.5788 221.856 47.2985 221.746 46.9197 221.67L45.4083 221.369C44.5561 221.199 43.9216 220.903 43.5049 220.483C43.0921 220.062 42.8856 219.527 42.8856 218.875C42.8856 218.314 43.0371 217.831 43.3402 217.426C43.647 217.021 44.0769 216.708 44.6299 216.489C45.1868 216.269 45.8383 216.159 46.5845 216.159C47.6868 216.159 48.5542 216.392 49.1868 216.858C49.8231 217.324 50.1943 217.958 50.3004 218.761ZM56.0007 225.17C55.1029 225.17 54.3302 224.989 53.6825 224.625C53.0386 224.258 52.5423 223.739 52.1939 223.068C51.8454 222.394 51.6711 221.597 51.6711 220.676C51.6711 219.778 51.8454 218.991 52.1939 218.312C52.5423 217.634 53.0329 217.106 53.6654 216.727C54.3018 216.348 55.048 216.159 55.9041 216.159C56.4798 216.159 57.0158 216.252 57.512 216.438C58.012 216.619 58.4476 216.894 58.8189 217.261C59.1939 217.629 59.4855 218.091 59.6939 218.648C59.9022 219.201 60.0064 219.848 60.0064 220.591V221.256H52.637V219.756H57.728C57.728 219.407 57.6522 219.098 57.5007 218.83C57.3492 218.561 57.1389 218.35 56.87 218.199C56.6048 218.044 56.2961 217.966 55.9439 217.966C55.5764 217.966 55.2507 218.051 54.9666 218.222C54.6863 218.388 54.4666 218.614 54.3075 218.898C54.1484 219.178 54.067 219.491 54.0632 219.835V221.261C54.0632 221.693 54.1427 222.066 54.3018 222.381C54.4647 222.695 54.6939 222.938 54.9893 223.108C55.2848 223.278 55.6351 223.364 56.0404 223.364C56.3094 223.364 56.5556 223.326 56.7791 223.25C57.0026 223.174 57.1939 223.061 57.3529 222.909C57.512 222.758 57.6333 222.572 57.7166 222.352L59.9552 222.5C59.8416 223.038 59.6086 223.508 59.2564 223.909C58.9079 224.307 58.4571 224.617 57.9041 224.841C57.3548 225.061 56.7204 225.17 56.0007 225.17ZM69.2322 225.17C68.3496 225.17 67.5864 224.983 66.9424 224.608C66.3023 224.229 65.808 223.703 65.4595 223.028C65.111 222.35 64.9368 221.564 64.9368 220.67C64.9368 219.769 65.111 218.981 65.4595 218.307C65.808 217.629 66.3023 217.102 66.9424 216.727C67.5864 216.348 68.3496 216.159 69.2322 216.159C70.1148 216.159 70.8762 216.348 71.5163 216.727C72.1602 217.102 72.6565 217.629 73.0049 218.307C73.3534 218.981 73.5277 219.769 73.5277 220.67C73.5277 221.564 73.3534 222.35 73.0049 223.028C72.6565 223.703 72.1602 224.229 71.5163 224.608C70.8762 224.983 70.1148 225.17 69.2322 225.17ZM69.2436 223.295C69.6451 223.295 69.9803 223.182 70.2493 222.955C70.5182 222.723 70.7208 222.409 70.8572 222.011C70.9974 221.614 71.0674 221.161 71.0674 220.653C71.0674 220.146 70.9974 219.693 70.8572 219.295C70.7208 218.898 70.5182 218.583 70.2493 218.352C69.9803 218.121 69.6451 218.006 69.2436 218.006C68.8383 218.006 68.4974 218.121 68.2208 218.352C67.9481 218.583 67.7417 218.898 67.6015 219.295C67.4652 219.693 67.397 220.146 67.397 220.653C67.397 221.161 67.4652 221.614 67.6015 222.011C67.7417 222.409 67.9481 222.723 68.2208 222.955C68.4974 223.182 68.8383 223.295 69.2436 223.295ZM80.6981 221.284V216.273H83.1186V225H80.7947V223.415H80.7038C80.5068 223.926 80.1792 224.337 79.7208 224.648C79.2663 224.958 78.7114 225.114 78.0561 225.114C77.4727 225.114 76.9595 224.981 76.5163 224.716C76.0731 224.451 75.7265 224.074 75.4765 223.585C75.2303 223.097 75.1053 222.511 75.1015 221.83V216.273H77.522V221.398C77.5258 221.913 77.664 222.32 77.9368 222.619C78.2095 222.919 78.575 223.068 79.0333 223.068C79.325 223.068 79.5977 223.002 79.8515 222.869C80.1053 222.733 80.3099 222.532 80.4652 222.267C80.6243 222.002 80.7019 221.674 80.6981 221.284ZM85.0547 225V216.273H87.4012V217.795H87.4922C87.6512 217.254 87.9183 216.845 88.2933 216.568C88.6683 216.288 89.1001 216.148 89.5887 216.148C89.71 216.148 89.8406 216.155 89.9808 216.17C90.1209 216.186 90.244 216.206 90.3501 216.233V218.381C90.2365 218.347 90.0793 218.316 89.8785 218.29C89.6778 218.263 89.494 218.25 89.3274 218.25C88.9713 218.25 88.6531 218.328 88.3728 218.483C88.0963 218.634 87.8766 218.847 87.7137 219.119C87.5547 219.392 87.4751 219.706 87.4751 220.062V225H85.0547ZM102.566 218.761L100.35 218.898C100.312 218.708 100.231 218.538 100.106 218.386C99.9808 218.231 99.816 218.108 99.6115 218.017C99.4107 217.922 99.1702 217.875 98.8899 217.875C98.5149 217.875 98.1986 217.955 97.941 218.114C97.6834 218.269 97.5547 218.477 97.5547 218.739C97.5547 218.947 97.638 219.123 97.8047 219.267C97.9713 219.411 98.2573 219.527 98.6626 219.614L100.242 219.932C101.091 220.106 101.723 220.386 102.14 220.773C102.557 221.159 102.765 221.667 102.765 222.295C102.765 222.867 102.596 223.369 102.259 223.801C101.926 224.233 101.468 224.57 100.884 224.812C100.305 225.051 99.6361 225.17 98.8785 225.17C97.7232 225.17 96.8028 224.93 96.1172 224.449C95.4353 223.964 95.0357 223.305 94.9183 222.472L97.299 222.347C97.3709 222.699 97.5452 222.968 97.8217 223.153C98.0982 223.335 98.4524 223.426 98.8842 223.426C99.3084 223.426 99.6494 223.345 99.9069 223.182C100.168 223.015 100.301 222.801 100.305 222.54C100.301 222.32 100.208 222.14 100.026 222C99.8444 221.856 99.5641 221.746 99.1853 221.67L97.674 221.369C96.8217 221.199 96.1872 220.903 95.7706 220.483C95.3577 220.062 95.1512 219.527 95.1512 218.875C95.1512 218.314 95.3028 217.831 95.6058 217.426C95.9126 217.021 96.3425 216.708 96.8956 216.489C97.4524 216.269 98.1039 216.159 98.8501 216.159C99.9524 216.159 100.82 216.392 101.452 216.858C102.089 217.324 102.46 217.958 102.566 218.761ZM108.266 225.17C107.369 225.17 106.596 224.989 105.948 224.625C105.304 224.258 104.808 223.739 104.459 223.068C104.111 222.394 103.937 221.597 103.937 220.676C103.937 219.778 104.111 218.991 104.459 218.312C104.808 217.634 105.298 217.106 105.931 216.727C106.567 216.348 107.314 216.159 108.17 216.159C108.745 216.159 109.281 216.252 109.778 216.438C110.278 216.619 110.713 216.894 111.084 217.261C111.459 217.629 111.751 218.091 111.959 218.648C112.168 219.201 112.272 219.848 112.272 220.591V221.256H104.903V219.756H109.994C109.994 219.407 109.918 219.098 109.766 218.83C109.615 218.561 109.405 218.35 109.136 218.199C108.87 218.044 108.562 217.966 108.209 217.966C107.842 217.966 107.516 218.051 107.232 218.222C106.952 218.388 106.732 218.614 106.573 218.898C106.414 219.178 106.333 219.491 106.329 219.835V221.261C106.329 221.693 106.408 222.066 106.567 222.381C106.73 222.695 106.959 222.938 107.255 223.108C107.55 223.278 107.901 223.364 108.306 223.364C108.575 223.364 108.821 223.326 109.045 223.25C109.268 223.174 109.459 223.061 109.619 222.909C109.778 222.758 109.899 222.572 109.982 222.352L112.221 222.5C112.107 223.038 111.874 223.508 111.522 223.909C111.173 224.307 110.723 224.617 110.17 224.841C109.62 225.061 108.986 225.17 108.266 225.17ZM113.852 225V216.273H116.198V217.795H116.289C116.448 217.254 116.715 216.845 117.09 216.568C117.465 216.288 117.897 216.148 118.386 216.148C118.507 216.148 118.638 216.155 118.778 216.17C118.918 216.186 119.041 216.206 119.147 216.233V218.381C119.033 218.347 118.876 218.316 118.675 218.29C118.475 218.263 118.291 218.25 118.124 218.25C117.768 218.25 117.45 218.328 117.17 218.483C116.893 218.634 116.673 218.847 116.511 219.119C116.352 219.392 116.272 219.706 116.272 220.062V225H113.852ZM128.8 216.273L125.749 225H123.022L119.971 216.273H122.528L124.34 222.517H124.431L126.238 216.273H128.8ZM130.039 225V216.273H132.459V225H130.039ZM131.255 215.148C130.895 215.148 130.586 215.028 130.329 214.79C130.075 214.547 129.948 214.258 129.948 213.92C129.948 213.587 130.075 213.301 130.329 213.062C130.586 212.82 130.895 212.699 131.255 212.699C131.615 212.699 131.922 212.82 132.175 213.062C132.433 213.301 132.562 213.587 132.562 213.92C132.562 214.258 132.433 214.547 132.175 214.79C131.922 215.028 131.615 215.148 131.255 215.148ZM138.342 225.17C137.448 225.17 136.679 224.981 136.035 224.602C135.395 224.22 134.902 223.689 134.557 223.011C134.217 222.333 134.046 221.553 134.046 220.67C134.046 219.777 134.218 218.992 134.563 218.318C134.912 217.64 135.406 217.112 136.046 216.733C136.686 216.35 137.448 216.159 138.33 216.159C139.092 216.159 139.758 216.297 140.33 216.574C140.902 216.85 141.355 217.239 141.688 217.739C142.022 218.239 142.205 218.826 142.239 219.5H139.955C139.891 219.064 139.72 218.714 139.444 218.449C139.171 218.18 138.813 218.045 138.37 218.045C137.995 218.045 137.667 218.148 137.387 218.352C137.111 218.553 136.895 218.847 136.739 219.233C136.584 219.619 136.506 220.087 136.506 220.636C136.506 221.193 136.582 221.667 136.734 222.057C136.889 222.447 137.107 222.744 137.387 222.949C137.667 223.153 137.995 223.256 138.37 223.256C138.647 223.256 138.895 223.199 139.114 223.085C139.338 222.972 139.522 222.807 139.665 222.591C139.813 222.371 139.91 222.108 139.955 221.801H142.239C142.201 222.468 142.02 223.055 141.694 223.562C141.372 224.066 140.927 224.46 140.359 224.744C139.79 225.028 139.118 225.17 138.342 225.17ZM147.766 225.17C146.869 225.17 146.096 224.989 145.448 224.625C144.804 224.258 144.308 223.739 143.959 223.068C143.611 222.394 143.437 221.597 143.437 220.676C143.437 219.778 143.611 218.991 143.959 218.312C144.308 217.634 144.798 217.106 145.431 216.727C146.067 216.348 146.814 216.159 147.67 216.159C148.245 216.159 148.781 216.252 149.278 216.438C149.778 216.619 150.213 216.894 150.584 217.261C150.959 217.629 151.251 218.091 151.459 218.648C151.668 219.201 151.772 219.848 151.772 220.591V221.256H144.403V219.756H149.494C149.494 219.407 149.418 219.098 149.266 218.83C149.115 218.561 148.905 218.35 148.636 218.199C148.37 218.044 148.062 217.966 147.709 217.966C147.342 217.966 147.016 218.051 146.732 218.222C146.452 218.388 146.232 218.614 146.073 218.898C145.914 219.178 145.833 219.491 145.829 219.835V221.261C145.829 221.693 145.908 222.066 146.067 222.381C146.23 222.695 146.459 222.938 146.755 223.108C147.05 223.278 147.401 223.364 147.806 223.364C148.075 223.364 148.321 223.326 148.545 223.25C148.768 223.174 148.959 223.061 149.119 222.909C149.278 222.758 149.399 222.572 149.482 222.352L151.721 222.5C151.607 223.038 151.374 223.508 151.022 223.909C150.673 224.307 150.223 224.617 149.67 224.841C149.12 225.061 148.486 225.17 147.766 225.17ZM160.613 218.761L158.397 218.898C158.359 218.708 158.278 218.538 158.153 218.386C158.028 218.231 157.863 218.108 157.658 218.017C157.458 217.922 157.217 217.875 156.937 217.875C156.562 217.875 156.245 217.955 155.988 218.114C155.73 218.269 155.602 218.477 155.602 218.739C155.602 218.947 155.685 219.123 155.852 219.267C156.018 219.411 156.304 219.527 156.709 219.614L158.289 219.932C159.138 220.106 159.77 220.386 160.187 220.773C160.603 221.159 160.812 221.667 160.812 222.295C160.812 222.867 160.643 223.369 160.306 223.801C159.973 224.233 159.514 224.57 158.931 224.812C158.352 225.051 157.683 225.17 156.925 225.17C155.77 225.17 154.85 224.93 154.164 224.449C153.482 223.964 153.083 223.305 152.965 222.472L155.346 222.347C155.418 222.699 155.592 222.968 155.869 223.153C156.145 223.335 156.499 223.426 156.931 223.426C157.355 223.426 157.696 223.345 157.954 223.182C158.215 223.015 158.348 222.801 158.352 222.54C158.348 222.32 158.255 222.14 158.073 222C157.891 221.856 157.611 221.746 157.232 221.67L155.721 221.369C154.869 221.199 154.234 220.903 153.817 220.483C153.405 220.062 153.198 219.527 153.198 218.875C153.198 218.314 153.35 217.831 153.653 217.426C153.959 217.021 154.389 216.708 154.942 216.489C155.499 216.269 156.151 216.159 156.897 216.159C157.999 216.159 158.867 216.392 159.499 216.858C160.136 217.324 160.507 217.958 160.613 218.761Z" fill="#565656"/>
</svg>
