<svg width="50" height="50" viewBox="0 0 50 50" fill="none" xmlns="http://www.w3.org/2000/svg">
<path fill-rule="evenodd" clip-rule="evenodd" d="M14.1417 6.25C12.4364 6.24997 11.029 6.24995 9.88319 6.34511C8.69288 6.44396 7.59946 6.65617 6.57521 7.18822C5.05319 7.97885 3.81219 9.21986 3.02156 10.7419C2.48951 11.7661 2.27729 12.8595 2.17844 14.0499C2.08328 15.1957 2.08331 16.603 2.08333 18.3083V31.25C2.08333 35.237 4.88333 38.5701 8.62422 39.3901C9.42528 41.918 11.7904 43.75 14.5833 43.75C17.3046 43.75 19.6197 42.0108 20.4777 39.5833H31.6056C32.4636 42.0108 34.7787 43.75 37.5 43.75C40.4231 43.75 42.8775 41.7433 43.5608 39.0323C46.0206 37.9201 47.6021 35.2671 47.1673 32.397L46.8765 30.4778C46.1276 25.535 44.2765 20.8239 41.4602 16.6934L41.0821 16.1389C39.5298 13.8622 36.9524 12.5 34.1969 12.5H31.25C31.1445 12.5 31.04 12.5039 30.9365 12.5116C30.8029 11.8974 30.6064 11.309 30.3118 10.7419C29.5211 9.21986 28.2801 7.97885 26.7581 7.18822C25.7339 6.65617 24.6405 6.44396 23.4501 6.34511C22.3043 6.24995 20.897 6.24997 19.1917 6.25H14.1417ZM31.25 18.1579C31.25 18.2077 31.25 18.2579 31.25 18.3082V35.4167H31.6056C32.4636 32.9892 34.7787 31.25 37.5 31.25C39.7688 31.25 41.7553 32.4589 42.8504 34.2677C43.0366 33.8978 43.1152 33.4674 43.0476 33.0212L42.7568 31.102C42.1015 26.777 40.4818 22.6549 38.0176 19.0407L37.6395 18.4861C36.8633 17.3477 35.5746 16.6667 34.1969 16.6667L31.25 16.6667V18.1579ZM27.0833 18.3958C27.0833 16.5812 27.0817 15.3476 27.0025 14.3947C26.9255 13.4667 26.7858 12.993 26.6142 12.6626C26.2189 11.9016 25.5984 11.2811 24.8374 10.8858C24.507 10.7142 24.0333 10.5745 23.1053 10.4975C22.1524 10.4183 20.9188 10.4167 19.1042 10.4167H14.2292C12.4145 10.4167 11.181 10.4183 10.228 10.4975C9.30003 10.5745 8.82631 10.7142 8.49594 10.8858C7.73493 11.2811 7.11443 11.9016 6.71911 12.6626C6.5475 12.993 6.40788 13.4667 6.33081 14.3947C6.25168 15.3476 6.25 16.5812 6.25 18.3958V31.25C6.25 32.9826 7.30747 34.4681 8.81219 35.0965C9.75398 32.8377 11.9832 31.25 14.5833 31.25C17.3046 31.25 19.6197 32.9892 20.4777 35.4167H27.0833V18.3958ZM16.6667 37.5C16.6667 36.3494 15.7339 35.4167 14.5833 35.4167C13.4327 35.4167 12.5 36.3494 12.5 37.5C12.5 38.6506 13.4327 39.5833 14.5833 39.5833C15.7339 39.5833 16.6667 38.6506 16.6667 37.5ZM35.4167 37.5C35.4167 36.3494 36.3494 35.4167 37.5 35.4167C38.6506 35.4167 39.5833 36.3494 39.5833 37.5C39.5833 38.6506 38.6506 39.5833 37.5 39.5833C36.3494 39.5833 35.4167 38.6506 35.4167 37.5Z" fill="white"/>
</svg>
